<svg viewBox="0 0 500 500" fill="none" xmlns="http://www.w3.org/2000/svg" role="img" aria-label="Achievement illustration">
  <ellipse cx="250" cy="438" rx="170" ry="26" fill="#8B5CF6" opacity="0.12"/>
  <!-- Confetti -->
  <rect x="92" y="96" width="14" height="14" rx="3" fill="#EC4899" transform="rotate(20 99 103)"/>
  <rect x="392" y="120" width="14" height="14" rx="3" fill="#8B5CF6" transform="rotate(-15 399 127)"/>
  <circle cx="120" cy="180" r="7" fill="#F59E0B"/>
  <circle cx="380" cy="210" r="7" fill="#EC4899"/>
  <rect x="410" y="300" width="12" height="12" rx="3" fill="#F59E0B" transform="rotate(25 416 306)"/>
  <!-- Trophy -->
  <g>
    <path d="M196 120 h108 v44 a54 54 0 0 1 -108 0 z" fill="#F59E0B"/>
    <path d="M196 130 h-30 a26 26 0 0 0 30 26 z" fill="#F59E0B"/>
    <path d="M304 130 h30 a26 26 0 0 1 -30 26 z" fill="#F59E0B"/>
    <rect x="238" y="206" width="24" height="34" fill="#F59E0B"/>
    <rect x="210" y="240" width="80" height="18" rx="6" fill="#1b1730"/>
    <rect x="222" y="258" width="56" height="14" rx="5" fill="#1b1730" opacity="0.85"/>
    <path d="M232 150 l8 18 18 2 -13 13 4 18 -17 -10 -17 10 4 -18 -13 -13 18 -2 z" fill="#fff" opacity="0.85"/>
  </g>
  <!-- Person celebrating -->
  <g>
    <path d="M150 432 v-58 a58 58 0 0 1 116 0 v58 z" fill="#8B5CF6"/>
    <circle cx="208" cy="320" r="44" fill="#F7C9A8"/>
    <path d="M164 318 a44 44 0 0 1 88 0 v-8 a44 44 0 0 0 -88 0 z" fill="#1b1730"/>
    <circle cx="194" cy="320" r="4.5" fill="#1b1730"/>
    <circle cx="224" cy="320" r="4.5" fill="#1b1730"/>
    <path d="M198 338 q10 9 20 0" stroke="#1b1730" stroke-width="4" stroke-linecap="round" fill="none"/>
    <!-- raised arm -->
    <path d="M252 378 q40 -8 44 -60" stroke="#F7C9A8" stroke-width="22" stroke-linecap="round" fill="none"/>
  </g>
</svg>
