<svg xmlns="http://www.w3.org/2000/svg" viewBox="0 0 500 500"><g id="freepik--Floor--inject-87"><g><line x1="449.35019" y1="370.2337" x2="484.31459" y2="370.2337" style="fill:none; stroke:#263238; stroke-miterlimit:10;"></line><line x1="25.7121" y1="374.2993" x2="484.31459" y2="374.2993" style="fill:none; stroke:#263238; stroke-miterlimit:10;"></line><line x1="25.7121" y1="370.2337" x2="441.219" y2="370.2337" style="fill:none; stroke:#263238; stroke-miterlimit:10;"></line><line x1="25.7121" y1="268.593" x2="484.31459" y2="268.593" style="fill:none; stroke:#263238; stroke-miterlimit:10;"></line><line x1="84.2571" y1="272.6587" x2="484.31459" y2="272.6587" style="fill:none; stroke:#263238; stroke-miterlimit:10;"></line><line x1="25.7121" y1="272.6587" x2="76.939" y2="272.6587" style="fill:none; stroke:#263238; stroke-miterlimit:10;"></line></g></g><g id="freepik--Character_2--inject-87"><g><g><path d="M386.37949,201.8059c-5.8127,.9839-11.098,3.9617-15.0846,8.3047-5.047,5.498-12.247,13.6131-15.08889,18.1423-4.57471,7.2909-6.86211,11.7227-6.29021,13.4382,.5718,1.7155,.5718,3.574,2.4303,4.8606,1.8585,1.2867,35.4541,25.5899,36.16891,26.4476,.71479,.8578,9.57829,11.1509,9.57829,11.1509l3.431,4.8606,7.7198-8.0057s-17.8699-20.7292-20.4432-24.4462c-2.5733-3.7169-12.5805-14.296-12.5805-14.296l28.592-22.8735s6.1473-2.8592,3.1451-9.5784c-3.0022-6.7191-16.8693-8.5775-20.5862-8.1487-.3098,.0358-.64229,.0844-.9918,.1436Z" style="fill:#828282; stroke:#263238; stroke-miterlimit:10;"></path><path d="M387.37129,201.6623c-.3098,.0358-.64229,.0844-.9918,.1435-5.8126,.984-11.098,3.9618-15.0846,8.3048-5.047,5.498-12.247,13.6131-15.08889,18.1423-.342,.545-.66691,1.0689-.98311,1.5821l21.2284,12.2433,28.3611-22.689s6.1473-2.8591,3.1451-9.5783c-3.0021-6.7191-16.8693-8.5776-20.5862-8.1487Z" style="fill:#534AB7; stroke:#263238; stroke-miterlimit:10;"></path></g><path d="M382.41669,306.4985c-7.80469,0-14.1316,6.3269-14.1316,14.1316s6.32691,14.1317,14.1316,14.1317,14.1316-6.327,14.1316-14.1317-6.3269-14.1316-14.1316-14.1316Zm-6.9454,4.2517c2.2016-.6164,4.59871,1.0713,5.3541,3.7695,.7555,2.6983-.4168,5.3853-2.61839,6.0017-2.20151,.6164-4.59871-1.0713-5.35421-3.7695-.7554-2.6983,.4169-5.3853,2.6185-6.0017Zm3.0494,19.6527c-2.6983,.7555-5.3853-.4168-6.00169-2.6184-.61641-2.2016,1.07129-4.5987,3.76949-5.3541,2.6983-.7555,5.3854,.4168,6.0017,2.6184,.6164,2.2015-1.0713,4.5987-3.7695,5.3541Zm11.0319,.334c-2.20159,.6164-4.5987-1.0713-5.3541-3.7695-.75549-2.6983,.4168-5.3853,2.6184-6.0017,2.2015-.6164,4.5987,1.0712,5.3542,3.7695,.7554,2.6983-.4169,5.3854-2.6185,6.0017Zm-.8165-11.6803c-2.6983,.7555-5.3853-.4168-6.0017-2.6184-.61639-2.2016,1.0713-4.5987,3.7695-5.3542,2.6983-.7554,5.3853,.4169,6.0017,2.6185,.61641,2.2015-1.0713,4.5987-3.7695,5.3541Z" style="fill:#878787; stroke:#263238; stroke-miterlimit:10;"></path><g><circle cx="441.28007" cy="314.33788" r="49.63707" transform="translate(-63.9593 118.71174) rotate(-14.29733)" style="fill:#fff; stroke:#263238; stroke-miterlimit:10;"></circle><circle cx="441.28007" cy="314.33788" r="47.17907" transform="translate(-63.91552 118.59873) rotate(-14.28452)" style="fill:#263238; stroke:#263238; stroke-miterlimit:10;"></circle><circle cx="441.28006" cy="314.33788" r="40.42968" transform="translate(-61.26047 111.87948) rotate(-13.52047)" style="fill:#666; stroke:#263238; stroke-miterlimit:10;"></circle><polygon points="441.51079 277.6769 433.96509 309.3201 408.727 334.4602 442.13429 324.2612 474.29469 334.4602 451.00379 308.5899 441.51079 277.6769" style="fill:#534AB7;"></polygon></g><path d="M314.36419,279.8809l-21.2526,21.1198-22.1639-21.6196c-1.3438,.836-2.6305,1.7375-3.8472,2.7097l14.0531,27.4993-27.8843,14.0746c.3879,1.4904,.8598,2.9738,1.4292,4.4439l30.9288-4.4915,4.37771,30.177c1.58159,.09,3.17469,.0865,4.773-.0136l5.57229-30.0836,29.3612,4.7198c.6004-1.5129,1.1144-3.06,1.5292-4.6374l-26.2649-14.0601,13.2748-26.9547c-1.2387-1.0431-2.5391-2.0014-3.8864-2.8836Z" style="opacity:.12; stroke:#000; stroke-miterlimit:10;"></path><path d="M319.73319,284.1011l-24.3623,17.4411-18.413-24.892c-1.4603,.6098-2.87489,1.2935-4.2317,2.0582l9.4647,29.3959-29.7793,9.4243c.144,1.5332,.3721,3.0731,.6985,4.6154l31.24891,.5229-.51471,30.4886c1.5466,.3422,3.11971,.5941,4.7134,.7514l10.3212-28.8018,28.2254,9.3639c.8351-1.3972,1.5904-2.8419,2.2526-4.3325l-23.6723-18.0873,17.4227-24.479c-1.0555-1.2282-2.1855-2.3825-3.3741-3.4691Z" style="opacity:.24; stroke:#000; stroke-miterlimit:10;"></path><path d="M323.01359,287.3825l-26.1437,14.6366-15.5437-26.7776c-1.5189,.4444-3.0005,.9673-4.4337,1.577l6.152,30.2631-30.6397,6.0692c-.0266,1.5398,.0296,3.0955,.18321,4.6645l30.99889,3.9795-3.8872,30.2441c1.49931,.5114,3.0348,.9358,4.60131,1.2687l13.44659-27.4821,27.0151,12.4314c.9846-1.2961,1.89531-2.6483,2.7184-4.0564l-21.5242-20.597,20.0259-22.3996c-.9131-1.3374-1.9083-2.6098-2.9692-3.8214Z" style="opacity:.24; stroke:#000; stroke-miterlimit:10;"></path><g><g><path d="M251.37709,286.445c-15.4048,22.6762-9.5102,53.5468,13.16591,68.9516,22.67619,15.4048,53.54679,9.5102,68.95159-13.1659,15.4048-22.6762,9.5102-53.5469-13.1659-68.9517-22.6762-15.4047-53.5469-9.5101-68.9516,13.166Zm74.5014,50.6117c-12.5473,18.4699-37.6916,23.2711-56.16149,10.7238-18.46991-12.5473-23.27111-37.6916-10.72381-56.1615s37.6917-23.2711,56.1615-10.7238c18.4699,12.5473,23.2711,37.6917,10.7238,56.1615Z" style="fill:#fff; stroke:#263238; stroke-miterlimit:10;"></path><path d="M253.41019,287.8262c-14.6419,21.5533-9.03919,50.8953,12.514,65.5373,21.5533,14.6419,50.8953,9.0392,65.5373-12.514,14.6419-21.5533,9.0392-50.8953-12.514-65.5373-21.5533-14.642-50.8953-9.0392-65.5373,12.514Zm72.4683,49.2305c-12.5473,18.4699-37.6916,23.2711-56.16149,10.7238-18.46991-12.5473-23.27111-37.6916-10.72381-56.1615s37.6917-23.2711,56.1615-10.7238c18.4699,12.5473,23.2711,37.6917,10.7238,56.1615Z" style="fill:#263238; stroke:#263238; stroke-miterlimit:10;"></path></g><path d="M280.62469,275.2338l2.2329,29.8787-30.8363,2.7877c-.23829,1.5646-.3896,3.1284-.4419,4.685l30.03161,7.1976-7.43161,30.3381c1.3847,.6741,2.8187,1.2798,4.3059,1.8028l16.6928-26.4219,25.7766,16.2904c1.0965-1.1432,2.1295-2.3561,3.0924-3.6357l-19.2375-23.7905,22.6731-19.2428c-.7593-1.4397-1.6008-2.8361-2.5298-4.1766l-27.7578,10.8181-11.8528-27.6095c-1.5979,.2631-3.1715,.6283-4.7176,1.0786Z" style="opacity:.12; stroke:#000; stroke-miterlimit:10;"></path><path d="M291.81459,274.0574l-5.7328,29.4084-30.4785-5.4504c-.6428,1.4462-1.2016,2.9146-1.6628,4.4022l27.0666,14.8692-15.1757,27.3006c1.15761,1.0157,2.3808,1.9784,3.6772,2.8754l23.0749-21.0788,20.5627,22.5166c1.3593-.8133,2.67581-1.7105,3.9423-2.6905l-12.2757-28.0247,26.94821-12.5757c-.35241-1.5891-.79541-3.158-1.33771-4.6963l-29.6288,3.1078-4.1449-29.759c-1.6107-.1679-3.2248-.231-4.835-.2048Z" style="fill:#263238; stroke:#263238; stroke-miterlimit:10;"></path></g><circle cx="292.43582" cy="314.33788" r="12.55572" transform="translate(-64.09525 75.14631) rotate(-13.21015)" style="fill:#666; stroke:#263238; stroke-miterlimit:10;"></circle><path d="M441.723,313.2289l-32.10041-42.0751,1.7121-1.9024-6.8486-9.3217,7.7998-29.2967s4.1852-1.5218,6.0876-3.234,.9512-5.8974,.9512-5.8974l8.751-.3804s.7609,2.0926,1.90231-.3805c1.14149-2.4731,1.33169-5.3267-.19021-5.8974s-22.8286-1.1414-22.8286-1.1414l-7.229,31.199-4.3755,.1902-.761,1.522-72.572-1.7649s.65031,7.5934-7.3338,5.8206l-4.55989,.51-19.79361,65.4793c-.2031,.6688,.0704,1.3904,.6657,1.7568,.7804,.4802,1.8051,.1758,2.1967-.6528l24.92121-52.3155,54.59839,57.2617s5.1364,3.6146,14.6483,3.4243c7.8108-.1562,39.48131-3.1345,50.5595-4.1948,2.3065-.2208,4.2141-1.8786,4.76-4.1305,.3862-1.593,.033-3.2752-.96119-4.5784Zm-112.57121-51.7773c-1.3316-1.7121-2.4731-6.0876,.3805-7.6095,2.8535-1.5219,13.31671-2.0926,29.6771-3.234,16.3605-1.1415,33.482,3.234,33.482,3.234,0,0,2.4731,.3805,3.234,2.0926,.761,1.7122-1.7121,6.0877-1.7121,6.0877,0,0-5.7072,16.9311-9.1314,25.6821-3.4244,8.7509-8.1803,24.5407-8.1803,24.5407,0,0-46.4181-49.0814-47.7498-50.7936Zm102.7286,54.9789c-1.5219,.5707-36.9062,2.2828-38.9988,2.473-2.09259,.1903-5.3267-1.1414-7.4193-3.8047s-.5707-10.6534,2.4731-18.8336c2.291-6.1571,9.6475-16.0864,13.1461-20.6212,.9496-1.2307,2.8019-1.2406,3.7681-.023,6.413,8.0819,27.04841,34.1269,28.1723,36.0535,1.3316,2.2829,.3804,4.1852-1.1415,4.756Z" style="fill:#263238; stroke:#263238; stroke-miterlimit:10;"></path><circle cx="381.595" cy="322.5658" r="2.994" style="fill:#fff; stroke:#263238; stroke-miterlimit:10;"></circle><g><path d="M325.63209,190.0966l-7.77209,18.6208s-8.41991,10.3629-9.39141,14.4109-15.7062,25.5833-15.7062,25.5833c0,0-9.0675-.3239-9.5533-.1619-.4857,.1619-3.0764,3.4003-3.0764,3.4003l-1.2954,1.6192s-1.6192,.4857-1.45729,1.4573c.16189,.9715-.16191,3.2384,.48579,3.5622s1.2953,1.6192,2.2669,1.2954c.9715-.3239,1.29531-.9716,.9715-1.6192-.3239-.6477-.6477-1.2954-.1619-1.4573,.48571-.1619,8.9055,1.7811,8.9055,1.7811,0,0-1.1334,1.7811-1.6192,2.2669-.4857,.4857-3.7241,1.7811-3.0764,2.5907,.6476,.8096,4.5337,.3238,5.3433,0,.8096-.3239,5.01951-4.8576,5.18151-5.3434,.16189-.4857,18.135-19.4303,18.135-19.4303,0,0,5.66719-4.3719,8.74359-9.2295,3.0765-4.8576,6.4768-13.4393,6.4768-13.4393l9.3914-20.24s-8.096-6.8006-9.8771-6.8006c-1.7812,0-2.9146,1.1334-2.9146,1.1334Z" style="fill:#534AB7; stroke:#263238; stroke-miterlimit:10;"></path><path d="M312.26289,216.2063c-1.7838,2.6044-3.4006,5.2817-3.7943,6.922-.9715,4.0479-15.7062,25.5833-15.7062,25.5833,0,0-9.0675-.3239-9.5533-.1619-.4857,.1619-3.0765,3.4003-3.0765,3.4003l-1.2953,1.6192s-1.6192,.4857-1.45729,1.4573c.16189,.9715-.16191,3.2384,.48579,3.5622,.6476,.3238,1.2953,1.6192,2.2668,1.2953,.9716-.3238,1.29541-.9715,.9716-1.6191-.3239-.6477-.6477-1.2954-.1619-1.4574,.48571-.1618,8.9055,1.7812,8.9055,1.7812,0,0-1.1334,1.7811-1.6192,2.2669-.4857,.4857-3.7241,1.7811-3.0764,2.5907s4.5337,.3238,5.3433,0c.8096-.3239,5.01951-4.8576,5.18151-5.3434,.16189-.4857,18.135-19.4304,18.135-19.4304,0,0,1.63609-1.2658,3.62429-3.1838l-5.1734-19.2824Z" style="fill:#fff; stroke:#263238; stroke-miterlimit:10;"></path><path d="M338.42379,195.7638s-8.096-6.8006-9.8772-6.8006c-1.781,0-2.9145,1.1334-2.9145,1.1334l-3.7208,8.9144,8.54971,13.9141,7.96279-17.1613Z" style="fill:#263238; stroke:#263238; stroke-miterlimit:10;"></path><path d="M283.20909,248.5497c-.4857,.1619-3.0765,3.4003-3.0765,3.4003l-1.2953,1.6192s-1.6192,.4857-1.45729,1.4572c.16189,.9716-.16191,3.2384,.48579,3.5623,.6476,.3238,1.2954,1.6192,2.2668,1.2953,.9716-.3238,1.29541-.9715,.9716-1.6192-.3238-.6476-.6477-1.2953-.162-1.4572,.48581-.162,8.9057,1.7811,8.9057,1.7811,0,0-1.1335,1.7811-1.6192,2.2669-.4858,.4857-3.7242,1.7811-3.0765,2.5907s4.5337,.3238,5.3433,0c.8096-.3239,5.01951-4.8576,5.18151-5.3434,.04289-.1288,1.34359-1.561,3.22329-3.5874-3.7892-2.4102-6.1379-5.8039-6.1379-5.8039,0,0-9.0675-.3239-9.5533-.1619Z" style="fill:#a8a8a8; stroke:#263238; stroke-miterlimit:10;"></path><path d="M285.93439,256.955l2.6724,1.3511c.74921,.1691,1.2411,.2826,1.2411,.2826,0,0-.0648,.1017-.168,.2601l3.7394,1.8907c1.1388-1.203,2.1788-2.4,2.25771-2.6366,.04289-.1288,1.34359-1.561,3.22329-3.5874-3.7892-2.4102-6.1379-5.8039-6.1379-5.8039,0,0-9.0675-.3239-9.5533-.1619,0,0,1.0955,1.3042,2.0268,3.0504,.9313,1.7461,.6985,5.3549,.6985,5.3549Z" style="fill:#fff; stroke:#263238; stroke-miterlimit:10;"></path></g><g><path d="M296.51209,181.9707s.4826,2.6541,1.5684,3.7399c1.0857,1.0857,3.9578,1.7119,4.9229,3.8834s.0999,4.4762,1.1018,6.0212c1.6666,2.57,4.8295,.6113,4.799,.1143,0,0,9.9262,3.8546,11.8564,2.8894,1.9302-.9651,2.1715-5.5494,2.1715-5.5494l8.691,1.7228s-.3669,.3281-.1256-7.7547-.2413-13.8735-.2413-13.8735c0,0-2.0508-1.0858-2.4128-2.5334l-.3619-1.4477-1.327-2.6541s-6.51449,6.6352-13.2703,7.8416c-6.7558,1.2064-16.045,5.0668-17.3721,7.6002Z" style="fill:#a8a8a8; stroke:#263238; stroke-miterlimit:10;"></path><path d="M321.99679,177.19s2.57521,.6868,4.9788-.1716c2.4035-.8584,1.8678-6.3877,1.8678-6.3877,0,0-.6733-2.0078-1.1811-3.0548s-5.6655,9.6141-5.6655,9.6141Z" style="fill:#263238; stroke:#263238; stroke-miterlimit:10;"></path><path d="M304.40789,187.1951c.5776,.6281,.7347,1.4235,.3509,1.7764-.3839,.353-1.1633,.13-1.741-.4981-.5776-.6282-.7347-1.4235-.35079-1.7765,.38379-.353,1.16329-.13,1.74089,.4982Z" style="fill:#263238;"></path><path d="M301.22349,186.6325s-.515-1.7168,2.0602-2.7469" style="fill:#fff; stroke:#263238; stroke-miterlimit:10;"></path><line x1="310.69019" y1="195.1983" x2="311.38149" y2="193.0093" style="fill:#fff; stroke:#263238; stroke-miterlimit:10;"></line></g><polygon points="322.28679 179.0218 322.93209 194.7585 324.50039 194.2759 323.77659 176.7833 322.28679 179.0218" style="fill:#263238; stroke:#263238; stroke-miterlimit:10;"></polygon><path d="M303.50649,156.5195c-3.8944,1.8094-7.1753,4.7564-9.4676,8.3877-1.23389,1.9544-2.4188,4.3181-2.9327,6.7592-1.27919,6.0762,1.7589,13.9114,2.7183,13.9114s10.5534-5.9164,11.5128-5.7565,2.3986,.9594,2.7184,2.0787-.6396,1.1193,0,2.2387c.6396,1.1193,.7995,2.5584,3.0381,2.5584s8.6346-4.3174,11.193-7.6753,7.67521-12.792,7.67521-12.792c0,0-4.31731-9.2743-12.95191-11.0332-5.6125-1.1433-9.8063-.3949-13.5036,1.3229Z" style="fill:#534AB7; stroke:#263238; stroke-miterlimit:10;"></path><g><path d="M380.91829,322.3472l.4212,20.1327,3.4286,.0688,1.2596-20.095c.0965-1.5403-1.1829-2.8146-2.7228-2.7118h0c-1.364,.091-2.4152,1.2385-2.3866,2.6053Z" style="fill:#fff; stroke:#263238; stroke-miterlimit:10;"></path><rect x="374.37716" y="341.62161" width="14.73466" height="3.71158" transform="translate(790.14517 654.78828) rotate(175.33759)" style="fill:#878787; stroke:#263238; stroke-miterlimit:10;"></rect></g><g><path d="M413.17269,183.1956c-11.6339-10.9372-30.1711-17.1581-43.6604-18.8442-15.5442-1.943-31.57429,3.5622-31.57429,3.5622,0,0-2.10491,.8096-4.048,2.2669-1.943,1.4573-2.63381,2.9835-2.63381,2.9835l.3669,21.6283s2.105,2.2669,5.8292,4.8576c3.7241,2.5907,13.1155,7.7721,20.5638,7.9341,7.4483,.1619,17.8111-.4858,17.8111-.4858,0,0,3.5623,1.4573,6.63881,1.6192,3.07639,.1619,8.74359,.1619,8.74359,.1619,0,0-.4858,2.4288-.1619,3.8861,.3238,1.4573,.3238,2.1049,.3238,2.1049l-3.1421,3.7135-.3032-.1156s-7.8421,10.8711-11.8581,21.632c-3.1328,8.3942-5.6226,24.6421-4.8829,27.5884s5.1166,26.3783,6.99,32.0138c1.9811,5.9596,3.4062,26.2518,2.5739,26.2068,0,0-10.5318,8.5881-13.796,9.9811-3.26409,1.3929-6.5283,1.3929-6.29509,3.2502,.23309,1.8572,.46629,1.8572,1.39889,2.0894s9.093,1.1608,13.0566,1.1608,11.1914-2.5537,14.2224-3.018c3.031-.4644,4.36011,.4203,5.0945-2.3436,.7343-2.764-.43139-6.2463-1.1309-7.4071-.69949-1.1608-1.1658-2.0894-1.6321-3.2502,0,0,1.2765-27.8151,1.8599-35.399,.7441-9.6743-2.845-26.1306-2.8449-26.1307,4.6653-6.9366,9.3307-13.8733,13.996-20.8099,2.5618-3.809,4.9457-7.8586,7.7371-11.5038,6.0311-7.8762,11.69551-15.8598,11.71-26.1742,.0121-9.2548-4.3628-16.9633-10.9528-23.1586Z" style="fill:#a8a8a8; stroke:#263238; stroke-miterlimit:10;"></path><path d="M424.12549,206.3542c.0121-9.2548-4.3629-16.9634-10.9528-23.1586-11.6339-10.9372-30.1711-17.1581-43.6604-18.8442-15.5442-1.943-31.57429,3.5622-31.57429,3.5622,0,0-2.10491,.8096-4.048,2.2669-1.943,1.4573-2.63381,2.9835-2.63381,2.9835l.3669,21.6283s2.105,2.2669,5.8292,4.8576c3.7241,2.5907,13.1155,7.7721,20.5638,7.9341,7.4483,.1619,17.8111-.4858,17.8111-.4858,0,0,3.5623,1.4573,6.63881,1.6192,3.07639,.1619,8.74359,.1619,8.74359,.1619,0,0-.4858,2.4288-.1619,3.8861,.3238,1.4573,.3238,2.1049,.3238,2.1049l-3.1421,3.7135-.3032-.1156s-7.8421,10.8711-11.8581,21.632c-.1268,.3397-.25209,.6964-.3766,1.0604,5.1274,.9541,16.2927,3.3872,25.6314,7.8606l3.3555-4.989c2.5618-3.809,4.9457-7.8586,7.7371-11.5038,6.0311-7.8762,11.69551-15.8598,11.71-26.1742Z" style="fill:#534AB7; stroke:#263238; stroke-miterlimit:10;"></path><path d="M413.84379,183.8501l-45.6701,8.681s20.4661,7.4781,24.0084,9.0524c3.5422,1.5743,5.44491,2.1986,6.2973,4.3294,1.5743,3.9358-1.9679,10.2331-3.9359,14.1689-1.9679,3.9358-6.2972,9.8395-7.8716,16.924-.5117,2.3026-1.0642,4.4334-1.578,6.2683,5.04,1.3272,10.9276,3.2076,16.229,5.7471l3.3555-4.989c2.5618-3.809,4.9457-7.8586,7.7371-11.5038,6.0311-7.8762,11.69551-15.8598,11.71-26.1742,.0117-8.9338-4.0712-16.4223-10.2817-22.5041Z" style="fill:#fff; stroke:#263238; stroke-miterlimit:10;"></path><path d="M346.84359,179.248c-5.0195-.8096-10.3629,1.2954-12.144,1.2954-1.2271,0-2.6075-1.0758-3.3478-1.7451l.2714,15.994s2.1049,2.2669,5.8291,4.8576c.8101,.5636,1.9002,1.2524,3.1683,1.9829,.8968,.1438,1.8297,.2509,2.8227,.284,4.8576,.1619,14.73471-3.0765,15.2204-8.7437,.4858-5.6672-6.8006-13.1155-11.8201-13.9251Z" style="fill:#fff; stroke:#263238; stroke-miterlimit:10;"></path><path d="M394.68519,206.2396s3.9777-1.6574,11.2701-6.961" style="fill:none; stroke:#263238; stroke-miterlimit:10;"></path><path d="M392.99069,214.0608s6.8007-2.5908,12.7917,1.4572" style="fill:none; stroke:#263238; stroke-miterlimit:10;"></path><path d="M392.01919,212.2796s3.8861-1.6192,5.8291-1.7811" style="fill:none; stroke:#263238; stroke-miterlimit:10;"></path><path d="M391.89689,326.9134c-.903,.9536-2.4502,2.2203-4.79389,3.0015-3.10791,1.0359-3.65181,1.2173-3.72951,1.2432-.0258,.0086,0,0,0,0,0,0-.8288-1.7957-1.2431-4.1438-.3405-1.9299-1.0532-1.4347-1.2967-1.1968-.0253,.0558-.0528,.0934-.0846,.0917,0,0-10.5318,8.5881-13.796,9.981-3.26409,1.393-6.5283,1.393-6.29509,3.2503,.23309,1.8572,.46629,1.8572,1.39889,2.0894s9.093,1.1608,13.0566,1.1608,11.1914-2.5537,14.2224-3.018c3.031-.4644,4.36011,.4202,5.0945-2.3437,.7343-2.7639-.43139-6.2462-1.1309-7.407-.5859-.9724-1.0068-1.789-1.4026-2.7086Z" style="fill:#263238; stroke:#263238; stroke-miterlimit:10;"></path></g><path d="M279.96739,257.6803h0c.0972,1.2959,1.0621,2.3603,2.3423,2.5837l9.7256,1.6977c1.8954,.3309,3.737-.815,4.2774-2.6617h.0001c.2863-.9784,.1653-2.0309-.3355-2.9188l-.5376-.9529c-.7508-1.3309-2.229-2.0788-3.746-1.8953l-9.2368,1.1173c-1.5063,.1822-2.603,1.5169-2.4895,3.03Z" style="fill:#263238; stroke:#263238; stroke-miterlimit:10;"></path><path d="M322.02169,244.8483s-4.3072-1.8626-10.4769-1.5134c-6.16979,.3493-18.8586,7.916-21.0704,11.059l1.1641,.3493s7.916-7.1011,14.2021-8.3816c0,0,1.8626-.1164,1.2806,1.2805-.5821,1.3969-13.5037,10.477-13.5037,10.477l.3492,1.7462s12.5724-10.0114,17.92731-11.0591c5.35489-1.0477,2.79389,1.8626,2.79389,1.8626,0,0,2.4446,.5821,4.6564-.4656s2.6774-5.3549,2.6774-5.3549Z" style="fill:#263238; stroke:#263238; stroke-miterlimit:10;"></path><path d="M441.59459,320.5298h-5.2694v-5.7484h5.2694c1.58741,0,2.8742,1.2868,2.8742,2.8742h0c0,1.5874-1.28679,2.8742-2.8742,2.8742Z" style="fill:#fff; stroke:#263238; stroke-miterlimit:10;"></path><line x1="391.37149" y1="214.8703" x2="383.80869" y2="211.599" style="fill:none; stroke:#263238; stroke-miterlimit:10;"></line><path d="M306.01539,155.5446c-.8658,.2733-1.7002,.5992-2.5088,.9749-3.8945,1.8094-7.1754,4.7564-9.4677,8.3876-1.23389,1.9545-2.4188,4.3182-2.9327,6.7593-1.27919,6.0762,1.7589,13.9114,2.7183,13.9114,.4819,0,3.1426-1.4929,5.7932-2.9585-1.4843-7.3491-2.11369-19.2292,6.3977-27.0747Z" style="fill:#fff; stroke:#263238; stroke-miterlimit:10;"></path></g></g><g id="freepik--Character_1--inject-87"><g><g><path d="M202.28789,258.4259c-7.7738,1.3159-14.8424,5.2985-20.1742,11.1068-6.7498,7.3531-16.3792,18.2062-20.1799,24.2635-6.1182,9.751-9.1773,15.678-8.4125,17.9724,.7647,2.2943,.7647,4.7798,3.2503,6.5006,2.4855,1.7208,47.4163,34.2239,48.3723,35.3711s12.81011,14.9132,12.81011,14.9132l4.58869,6.5006,10.3245-10.7069s-23.8994-27.7233-27.3409-32.6944c-3.4415-4.971-16.8252-19.1195-16.8252-19.1195l38.2391-30.5912s8.2213-3.8239,4.2062-12.81c-4.015-8.9862-22.561-11.4717-27.532-10.8981-.4143,.0478-.8591,.1128-1.3265,.1919Z" style="fill:#e3e3e3; stroke:#263238; stroke-miterlimit:10;"></path><path d="M203.61439,258.2339c-.4143,.0479-.8591,.1129-1.3265,.192-7.7738,1.3159-14.8424,5.2985-20.1742,11.1068-6.7498,7.3531-16.3792,18.2062-20.1798,24.2635-.4575,.729-.892,1.4296-1.3149,2.1159l28.3909,16.3743,37.9302-30.3443s8.2214-3.8239,4.2063-12.81c-4.015-8.9862-22.561-11.4717-27.532-10.8982Z" style="fill:#534AB7; stroke:#263238; stroke-miterlimit:10;"></path><path d="M203.61439,258.2339c-.4143,.0479-.8591,.1129-1.3265,.192-7.7738,1.3159-14.8424,5.2985-20.1742,11.1068-.0466,.0508-.0965,.1056-.1434,.1567-.7019,9.9532-1.5844,24.9174-1.6159,37.6049l8.6555,4.9921,37.9302-30.3443s8.2214-3.8239,4.2063-12.81c-4.015-8.9862-22.561-11.4717-27.532-10.8982Z" style="fill:#ccc; stroke:#263238; stroke-miterlimit:10;"></path></g><g><path d="M76.6474,342.5418c-36.6633,0-66.3847,29.7214-66.3847,66.3847s29.7214,66.3847,66.3847,66.3847,66.3847-29.7214,66.3847-66.3847-29.7214-66.3847-66.3847-66.3847Zm0,120.4555c-29.8624,0-54.0707-24.2083-54.0707-54.0708s24.2083-54.0707,54.0707-54.0707,54.0708,24.2083,54.0708,54.0707-24.2083,54.0708-54.0708,54.0708Z" style="fill:#fff; stroke:#263238; stroke-miterlimit:10;"></path><path d="M76.6474,345.8291c-34.8478,0-63.0974,28.2497-63.0974,63.0974s28.2496,63.0974,63.0974,63.0974,63.0974-28.2496,63.0974-63.0974-28.2496-63.0974-63.0974-63.0974Zm0,117.1682c-29.8624,0-54.0707-24.2083-54.0707-54.0708s24.2083-54.0707,54.0707-54.0707,54.0708,24.2083,54.0708,54.0707-24.2083,54.0708-54.0708,54.0708Z" style="fill:#263238; stroke:#263238; stroke-miterlimit:10;"></path></g><path d="M196.9881,398.4421c-10.438,0-18.8997,8.4617-18.8997,18.8998s8.4617,18.8996,18.8997,18.8996,18.8997-8.4617,18.8997-18.8996-8.4617-18.8998-18.8997-18.8998Zm-9.2889,5.6863c2.9445-.8244,6.1504,1.4327,7.1607,5.0413,1.0104,3.6087-.5574,7.2024-3.5019,8.0268-2.9443,.8243-6.1503-1.4328-7.1607-5.0414-1.0103-3.6087,.5576-7.2023,3.5019-8.0267Zm4.0784,26.2836c-3.6087,1.0104-7.2024-.5574-8.0267-3.5019-.8244-2.9443,1.4327-6.1503,5.0414-7.1606,3.6086-1.0104,7.2023,.5575,8.0266,3.5019,.8244,2.9444-1.4327,6.1503-5.0413,7.1606Zm14.7541,.4467c-2.9444,.8244-6.1504-1.4327-7.16069-5.0414-1.01031-3.6087,.55749-7.2023,3.50189-8.0267,2.9444-.8243,6.1504,1.4327,7.1607,5.0414s-.5575,7.2024-3.5019,8.0267Zm-1.092-15.6213c-3.60869,1.0104-7.2024-.5575-8.02669-3.5019-.8244-2.9443,1.43269-6.1503,5.04139-7.1606,3.60861-1.0104,7.2023,.5575,8.0267,3.5019,.8243,2.9443-1.4328,6.1503-5.0414,7.1606Z" style="fill:#878787; stroke:#263238; stroke-miterlimit:10;"></path><g><circle cx="275.71209" cy="408.9265" r="66.3847" style="fill:#fff; stroke:#263238; stroke-miterlimit:10;"></circle><circle cx="275.71212" cy="408.92652" r="63.09742" transform="translate(-84.48908 72.03905) rotate(-12.92633)" style="fill:#263238; stroke:#263238; stroke-miterlimit:10;"></circle><circle cx="275.71212" cy="408.92652" r="54.07072" transform="translate(-84.78215 72.35267) rotate(-12.97619)" style="fill:#666; stroke:#263238; stroke-miterlimit:10;"></circle><path d="M273.05139,409.1372l-27.33,43.505c6.00461,4.1264,12.9022,7.0394,20.3432,8.407l11.4791-47.5699,27.19431-48.8913c-5.26991-3.4578-11.19111-5.9984-17.54251-7.403l-14.1441,51.9522Z" style="fill:#534AB7;"></path></g><path d="M105.9745,362.8437l-28.4233,28.2457-29.6421-28.9142c-1.7971,1.1181-3.518,2.3238-5.1453,3.6241l18.7947,36.7775-37.2925,18.8235c.5187,1.9932,1.1499,3.9772,1.9113,5.9433l41.3644-6.0069,5.8548,40.3588c2.1151,.1203,4.2457,.1157,6.3833-.0182l7.4524-40.2339,39.2677,6.3123c.803-2.0234,1.4905-4.0925,2.0452-6.2022l-35.1267-18.8039,17.7538-36.0493c-1.6567-1.3951-3.3958-2.6768-5.1977-3.8566Z" style="opacity:.12; stroke:#000; stroke-miterlimit:10;"></path><path d="M113.155,368.4878l-32.5823,23.3258-24.6255-33.2907c-1.9531,.8156-3.8449,1.73-5.6596,2.7527l12.6582,39.3141-39.827,12.6041c.1926,2.0506,.4977,4.11,.9343,6.1727l41.7923,.6994-.6883,40.7755c2.0684,.4577,4.1723,.7945,6.3037,1.005l13.8036-38.5197,37.7487,12.5233c1.1169-1.8686,2.127-3.8008,3.0126-5.7943l-31.6593-24.19,23.3012-32.7383c-1.4117-1.6425-2.923-3.1863-4.5126-4.6396Z" style="opacity:.24; stroke:#000; stroke-miterlimit:10;"></path><path d="M111.0306,366.4721l-31.3758,24.9251-26.2585-32.0184c-1.9099,.9123-3.7537,1.92-5.515,3.0321l14.6073,38.6324-39.1473,14.5788c.2948,2.0384,.7025,4.08,1.2415,6.1183l41.7751-1.3902,1.3504,40.7589c2.0888,.3538,4.2068,.5851,6.3461,.6887l11.8612-39.1614,38.3274,10.6211c1.0221-1.9221,1.9344-3.9023,2.7193-5.9376l-32.8288-22.5775,21.6359-33.862c-1.492-1.5699-3.0786-3.0362-4.7388-4.4083Z" style="opacity:.12; stroke:#000; stroke-miterlimit:10;"></path><path d="M117.5421,372.8764l-34.9645,19.575-20.7883-35.8125c-2.0314,.5944-4.0128,1.2937-5.9295,2.1092l8.2276,40.4739-40.9777,8.117c-.0356,2.0593,.0396,4.1399,.2451,6.2382l41.458,5.3223-5.1987,40.4485c2.0051,.6839,4.0587,1.2516,6.1537,1.6968l17.9836-36.7546,36.13,16.6258c1.3169-1.7334,2.5348-3.5419,3.6356-5.4251l-28.7864-27.5465,26.7826-29.9572c-1.2211-1.7888-2.5522-3.4904-3.9711-5.1108Z" style="opacity:.24; stroke:#000; stroke-miterlimit:10;"></path><path d="M120.7417,377.9671l-36.8421,15.7594-16.876-37.8138c-2.083,.3758-4.1274,.8611-6.1197,1.4689l3.8921,41.1179-41.6071,3.7288c-.2536,2.0439-.3993,4.1207-.4174,6.229l40.6605,9.6857-9.4559,39.6699c1.9213,.8926,3.9032,1.6747,5.9393,2.3393l21.7773-34.6418,34.1647,20.3611c1.4931-1.5842,2.8958-3.2534,4.19-5.0093l-25.7051-30.442,29.8065-26.9503c-1.0247-1.9081-2.168-3.7412-3.4071-5.5028Z" style="fill:#263238; stroke:#263238; stroke-miterlimit:10;"></path><circle cx="76.64743" cy="408.92652" r="16.79204" transform="translate(-266.70521 173.96972) rotate(-45)" style="fill:#534AB7; stroke:#263238; stroke-miterlimit:10;"></circle><path d="M276.30449,407.4434l-42.9312-56.2714,2.2898-2.5442-9.1593-12.4668,10.4315-39.1815s5.5973-2.0354,8.1416-4.3253c2.5442-2.2898,1.27211-7.8871,1.27211-7.8871l11.70349-.5089s1.0177,2.7987,2.5443-.5088c1.5265-3.3076,1.7809-7.1239-.2544-7.8872-2.0355-.7633-30.531-1.5265-30.531-1.5265l-9.6682,41.7257-5.8518,.2544-1.0177,2.0354-97.058-2.3603s.8696,10.1555-9.8084,7.7845l-6.0983,.682-26.472,87.5722c-.2716,.8945,.0941,1.8596,.8902,2.3496,1.0438,.6423,2.4142,.2351,2.9379-.873l33.3297-69.9669,73.02,76.582s6.8695,4.834,19.5907,4.5796c10.4462-.2089,52.80251-4.1922,67.6184-5.6102,3.0848-.2952,5.63611-2.5125,6.3662-5.5241,.5165-2.1305,.0441-4.3803-1.2856-6.1232Zm-150.553-69.2471c-1.781-2.2898-3.3076-8.1415,.5088-10.177,3.8164-2.0353,17.8098-2.7986,39.6903-4.3252,21.8806-1.5265,44.7788,4.3252,44.7788,4.3252,0,0,3.30761,.5089,4.3253,2.7987,1.0177,2.2899-2.2898,8.1416-2.2898,8.1416,0,0-7.6328,22.6438-12.2124,34.3474-4.5797,11.7035-10.9403,32.8209-10.9403,32.8209,0,0-62.0797-65.6417-63.8607-67.9316Zm137.3895,73.5289c-2.03531,.7633-49.35841,3.0531-52.15711,3.3075-2.7987,.2545-7.12389-1.5265-9.9226-5.0885-2.7987-3.5619-.76329-14.2478,3.3075-25.188,3.0641-8.2346,12.9027-21.5141,17.5817-27.5789,1.2699-1.646,3.7472-1.6593,5.0394-.0308,8.5768,10.8087,36.1747,45.6414,37.6777,48.2181,1.781,3.0531,.5089,5.5973-1.52659,6.3606Z" style="fill:#263238; stroke:#263238; stroke-miterlimit:10;"></path><g><path d="M121.0442,242.766l-10.3945,24.9034s-11.2607,13.8594-12.56,19.2732-21.0055,34.2152-21.0055,34.2152c0,0-12.127-.4331-12.7766-.2166-.6497,.2166-4.1145,4.5476-4.1145,4.5476l-1.7324,2.1655s-2.1655,.6497-1.949,1.949c.2166,1.2993-.2165,4.331,.6497,4.7641,.8662,.4332,1.7324,2.1656,3.0317,1.7325s1.7324-1.2993,1.2993-2.1656c-.4331-.8662-.8662-1.7324-.2165-1.9489,.6496-.2166,11.9103,2.382,11.9103,2.382,0,0-1.5158,2.3821-2.1655,3.0318-.6497,.6496-4.9807,2.382-4.1145,3.4648s6.0635,.4331,7.1462,0c1.0828-.4331,6.7131-6.4966,6.9297-7.1462,.2165-.6497,24.2538-25.9862,24.2538-25.9862,0,0,7.5793-5.847,11.6938-12.3435,4.1145-6.4966,8.6621-17.9738,8.6621-17.9738l12.56-27.069s-10.8276-9.0952-13.2097-9.0952-3.8979,1.5159-3.8979,1.5159Z" style="fill:#534AB7; stroke:#263238; stroke-miterlimit:10;"></path><path d="M138.1518,250.3453s-10.8276-9.0952-13.2097-9.0952-3.8979,1.5159-3.8979,1.5159l-4.9762,11.922,11.4343,18.6088,10.6495-22.9515Z" style="fill:#263238; stroke:#263238; stroke-miterlimit:10;"></path><path d="M64.3076,320.9412c-.6497,.2166-4.1145,4.5476-4.1145,4.5476l-1.7324,2.1655s-2.1655,.6497-1.949,1.949-.2165,4.331,.6497,4.7641,1.7324,2.1656,3.0317,1.7324c1.2993-.433,1.7324-1.2993,1.2993-2.1655s-.8662-1.7324-.2166-1.9489c.6497-.2166,11.9104,2.382,11.9104,2.382,0,0-1.5159,2.3821-2.1655,3.0318-.6497,.6496-4.9807,2.382-4.1145,3.4648s6.0635,.4331,7.1462,0c1.0828-.4331,6.7131-6.4966,6.9297-7.1462,.0574-.1723,1.797-2.0878,4.3109-4.7978-5.0677-3.2235-8.2089-7.7622-8.2089-7.7622,0,0-12.1269-.4331-12.7765-.2166Z" style="fill:#fff; stroke:#263238; stroke-miterlimit:10;"></path><path d="M67.9524,332.1825l3.574,1.8071c1.0021,.2261,1.6598,.3778,1.6598,.3778,0,0-.0866,.1361-.2246,.3479l5.0011,2.5286c1.523-1.6089,2.9139-3.2097,3.0194-3.5261,.0574-.1723,1.797-2.0878,4.3109-4.7978-5.0677-3.2235-8.2089-7.7622-8.2089-7.7622,0,0-12.1269-.4331-12.7765-.2166,0,0,1.4651,1.7443,2.7106,4.0797,1.2456,2.3353,.9342,7.1616,.9342,7.1616Z" style="fill:#fff; stroke:#263238; stroke-miterlimit:10;"></path></g><g><path d="M82.0991,231.8984s.6453,3.5495,2.0974,5.0016,3.2269,1.7748,4.5176,4.6789c1.2908,2.9042-.1613,5.6471,1.9362,6.9378,2.0974,1.2908,5.0016-.3227,5.0016-.3227,0,0,16.2957,7.2605,18.8772,5.9697,2.5814-1.2907,2.9041-7.4218,2.9041-7.4218l11.6234,2.3041s-.4907,.4388-.168-10.3712-.3227-18.5545-.3227-18.5545c0,0-2.7428-1.4521-3.2268-3.3882l-.4841-1.9361-1.7748-3.5496s-8.7125,8.8739-17.7477,10.4873c-9.0352,1.6135-21.4587,6.7764-23.2334,10.1647Z" style="fill:#fff; stroke:#263238; stroke-miterlimit:10;"></path><path d="M116.1824,225.5046s3.4441,.9185,6.6585-.2296c3.2145-1.148,2.4982-8.5429,2.4982-8.5429,0,0-.9006-2.6851-1.5797-4.0854-.6792-1.4003-7.577,12.8579-7.577,12.8579Z" style="fill:#263238; stroke:#263238; stroke-miterlimit:10;"></path><path d="M92.6589,238.8854c.7725,.84,.9826,1.9038,.4692,2.3759-.5133,.4721-1.5558,.1738-2.3283-.6663s-.9826-1.9038-.4692-2.3759c.5133-.4721,1.5558-.1738,2.3283,.6663Z" style="fill:#263238;"></path><path d="M88.4001,238.1329s-.6889-2.296,2.7552-3.6736" style="fill:#fff; stroke:#263238; stroke-miterlimit:10;"></path><line x1="101.0608" y1="249.5889" x2="101.9853" y2="246.6613" style="fill:#fff; stroke:#263238; stroke-miterlimit:10;"></line></g><polygon points="116.5702 227.9545 117.4332 249.0007 119.5307 248.3554 118.5626 224.9606 116.5702 227.9545" style="fill:#263238; stroke:#263238; stroke-miterlimit:10;"></polygon><path d="M91.4534,197.8598c-5.2084,2.4199-9.5963,6.3613-12.6621,11.2177-1.6501,2.6139-3.2349,5.7751-3.9222,9.0398-1.7108,8.1264,2.3524,18.6051,3.6355,18.6051s14.1142-7.9125,15.3973-7.6987c1.2831,.2139,3.2078,1.2831,3.6355,2.7801s-.8554,1.497,0,2.9939c.8554,1.497,1.0693,3.4217,4.0632,3.4217s11.548-5.774,14.9696-10.2649,10.2649-17.1082,10.2649-17.1082c0,0-5.774-12.4033-17.322-14.7557-7.5062-1.5291-13.115-.5282-18.0597,1.7692Z" style="fill:#534AB7; stroke:#263238; stroke-miterlimit:10;"></path><g><path d="M129.0566,249.046s2.8152,3.0317,7.7959,6.4965c4.9807,3.4649,17.5407,10.3945,27.5021,10.6111,9.9614,.2165,23.8207-.6497,23.8207-.6497,0,0,4.7642,1.949,8.8787,2.1655,4.11439,.2166,11.69379,.2166,11.69379,.2166,0,0-.6497,3.2483-.2166,5.1972,.4331,1.949,.4331,2.8152,.4331,2.8152l-7.1462,8.4455,22.5214,15.3752s12.7766-4.9807,17.9738-9.0952c5.1973-4.1144,7.5793-18.4069,7.7959-27.9352,.2165-9.5282-3.2483-22.5214-11.9104-29.2345s-12.3434-9.3117-13.8593-9.9614c-1.5159-.6496-23.8207-12.56-44.6097-15.1586-20.789-2.5986-42.2276,4.7641-42.2276,4.7641,0,0-2.8152,1.0828-5.4138,3.0318-2.5987,1.9489-3.5225,3.9902-3.5225,3.9902l.4907,28.9257Z" style="fill:#534AB7; stroke:#263238; stroke-miterlimit:10;"></path><path d="M244.03229,262.3799c-5.5607-17.4071-25.869-26.836-51.9797-26.836-15.494,0-31.4988,2.7242-41.9524,4.9395-7.3457,1.5567-14.2146,4.8242-20.0422,9.5592h0c1.2257,1.1703,3.5457,3.2399,6.7945,5.4999,4.9807,3.4648,17.5407,10.3945,27.5021,10.6111,9.9614,.2165,23.8207-.6497,23.8207-.6497,0,0,4.7642,1.949,8.8787,2.1655,4.11439,.2166,11.69369,.2166,11.69369,.2166,0,0-.6496,3.2482-.2165,5.1972s.4331,2.8152,.4331,2.8152l-7.1462,8.4455,22.5214,15.3752s13.1242-5.1162,18.1803-9.2615l.0238-.0329c2.35441-6.0161,5.123-16.6678,1.4887-28.0448Z" style="fill:#fff; stroke:#263238; stroke-miterlimit:10;"></path><path d="M149.4125,228.257c-6.7131-1.0828-13.8593,1.7324-16.2414,1.7324-1.6411,0-3.4873-1.4387-4.4773-2.3339l.3628,21.3904s2.8152,3.0318,7.7959,6.4966c1.0835,.7537,2.5413,1.675,4.2374,2.6519,1.1994,.1923,2.4471,.3356,3.775,.3799,6.4966,.2165,19.7063-4.1146,20.3559-11.6939,.6497-7.5793-9.0952-17.5407-15.8083-18.6234Z" style="fill:#fff; stroke:#263238; stroke-miterlimit:10;"></path><path d="M213.39609,264.3556s5.3197-2.2166,15.0726-9.3096" style="fill:none; stroke:#263238; stroke-miterlimit:10;"></path><path d="M211.12979,274.8157s9.09521-3.4649,17.1076,1.9489" style="fill:none; stroke:#263238; stroke-miterlimit:10;"></path><path d="M209.83049,272.4336s5.1973-2.1655,7.7959-2.3821" style="fill:none; stroke:#263238; stroke-miterlimit:10;"></path></g><g><path d="M204.20019,281.3122s4.9807,.8662,13.6427,5.8469c8.66211,4.9807,9.0952,11.4773,9.0952,11.4773,0,0-3.2483,8.2289-9.5283,12.7765s-17.7572,9.5283-21.2221,11.4773c-3.4648,1.949-12.56-.4331-14.942-5.6304-2.3821-5.1972-.2166-12.9931,1.5158-15.5917s21.4387-20.3559,21.4387-20.3559Z" style="fill:#263238; stroke:#263238; stroke-miterlimit:10;"></path><path d="M211.36579,306.1281c.4701,1.356-.6603,2.9793-2.52479,3.6256-1.86451,.6464-3.75711,.0711-4.22721-1.2849s.6604-2.9793,2.5249-3.6256c1.8645-.6464,3.757-.0711,4.2271,1.2849Z" style="fill:#fff; stroke:#263238; stroke-miterlimit:10;"></path></g><path d="M59.9721,333.1525h0c.1299,1.7332,1.4204,3.1567,3.1325,3.4556l13.0071,2.2704c2.535,.4425,4.9979-1.09,5.7207-3.5597v-.0001c.383-1.3084,.2212-2.7161-.4487-3.9035l-.7189-1.2745c-1.0041-1.7799-2.9811-2.7802-5.0099-2.5348l-12.3534,1.4944c-2.0145,.2437-3.4812,2.0287-3.3294,4.0522Z" style="fill:#263238; stroke:#263238; stroke-miterlimit:10;"></path><path d="M116.2157,315.9909s-5.7605-2.491-14.012-2.0239c-8.2514,.4671-25.2214,10.5868-28.1795,14.7904l1.5569,.467s10.5868-9.4969,18.9939-11.2095c0,0,2.491-.1557,1.7126,1.7126-.7784,1.8682-18.0598,14.0119-18.0598,14.0119l.467,2.3353s16.8144-13.3892,23.976-14.7904c7.1617-1.4011,3.7365,2.4911,3.7365,2.4911,0,0,3.2695,.7784,6.2276-.6228,2.958-1.4012,3.5808-7.1617,3.5808-7.1617Z" style="fill:#263238; stroke:#263238; stroke-miterlimit:10;"></path><circle cx="195.8892" cy="419.9306" r="4.0042" style="fill:#fff; stroke:#263238; stroke-miterlimit:10;"></circle><path d="M269.08549,409.5197h7.1617c2.05842,0,3.7296,1.67118,3.7296,3.7296v.2288c0,2.05842-1.67118,3.7296-3.7296,3.7296h-7.1617v-7.688h0Z" style="fill:#fff; stroke:#263238; stroke-miterlimit:10;"></path><line x1="208.96429" y1="275.8984" x2="198.84969" y2="271.5232" style="fill:none; stroke:#263238; stroke-miterlimit:10;"></line><path d="M94.8088,196.5559c-1.1579,.3656-2.2739,.8014-3.3554,1.3039-5.2084,2.4198-9.5963,6.3612-12.6621,11.2177-1.6501,2.6139-3.2348,5.775-3.9222,9.0398-1.7108,8.1264,2.3524,18.6051,3.6355,18.6051,.6446,0,4.203-1.9965,7.7479-3.9567-1.9852-9.8286-2.827-25.7172,8.5563-36.2098Z" style="fill:#263238; stroke:#263238; stroke-miterlimit:10;"></path></g></g></svg>
